<svg xmlns="http://www.w3.org/2000/svg" version="1.1"
     style="width:0;height:0;position:absolute;overflow:hidden;">
    <defs>
        <symbol viewBox="0 0 24 24" id="add-folder" aria-labelledby="add-folder-title">
            <title id="add-folder-title">icon add-folder</title>
            <path d="M24 17h-3v-3h-2v3h-3v2h3v3h2v-3h3v-2zm-10 5h-14v-20h7c1.695 1.942 2.371 3 4 3h13v7h-2v-5h-11c-2.34 0-3.537-1.388-4.916-3h-4.084v16h12v2z"/>
        </symbol>
        <symbol viewBox="0 0 24 24" id="editor" aria-labelledby="editor-title">
            <title id="editor-title">icon editor</title>
            <path d="M1.439 16.873l-1.439 7.127 7.128-1.437 16.873-16.872-5.69-5.69-16.872 16.872zm4.702 3.848l-3.582.724.721-3.584 2.861 2.86zm15.031-15.032l-13.617 13.618-2.86-2.861 10.825-10.826 2.846 2.846 1.414-1.414-2.846-2.846 1.377-1.377 2.861 2.86z"/>
        </symbol>
        <symbol viewBox="0 0 24 24" id="start" aria-labelledby="start-title">
            <title id="start-title">icon start</title>
            <path d="M20 7.093v-5.093h-3v2.093l3 3zm4 5.907l-12-12-12 12h3v10h7v-5h4v5h7v-10h3zm-5 8h-3v-5h-8v5h-3v-10.26l7-6.912 7 6.99v10.182z"/>
        </symbol>
        <symbol viewBox="0 0 24 24" id="inventory" aria-labelledby="inventory-title">
            <title id="inventory-title">icon inventory</title>
            <path d="M6.689 5h10.622l.333 1h-11.289l.334-1zm-1 3h12.622l-.333-1h-11.957l-.332 1zm1.666-5l-.332 1h9.955l-.334-1h-9.289zm-3.248 5l2-6h11.785l2 6h2.108l-2.666-8h-14.668l-2.666 8h2.107zm17.419 11l-.644 3h-17.765l-.644-3h19.053zm2.474-2h-24l1.5 7h21l1.5-7zm-10-4h-4v1h4v-1zm0 7h-4v1h4v-1zm-10.883-5l-.644-3h19.053l-.644 3h2.046l1.072-5h-24l1.071 5h2.046z"/>
        </symbol>
        <symbol viewBox="0 0 24 24" id="circle-plus" aria-labelledby="circle-plus-title" fill="#333333" fill-rule="evenodd" clip-rule="evenodd">
            <title id="circle-plus-title">icon circle-plus</title>
            <path d="M11.5 0c6.347 0 11.5 5.153 11.5 11.5s-5.153 11.5-11.5 11.5-11.5-5.153-11.5-11.5 5.153-11.5 11.5-11.5zm0 1c5.795 0 10.5 4.705 10.5 10.5s-4.705 10.5-10.5 10.5-10.5-4.705-10.5-10.5 4.705-10.5 10.5-10.5zm.5 10h6v1h-6v6h-1v-6h-6v-1h6v-6h1v6z"/>
        </symbol>
        <symbol viewBox="0 0 24 24" id="diagram" aria-labelledby="diagram-title" fill-rule="evenodd" clip-rule="evenodd">
            <title id="diagram-title">icon diagram</title>
            <path d="M16.272 5.451c-.176-.45-.272-.939-.272-1.451 0-2.208 1.792-4 4-4s4 1.792 4 4-1.792 4-4 4c-1.339 0-2.525-.659-3.251-1.67l-7.131 3.751c.246.591.382 1.239.382 1.919 0 .681-.136 1.33-.384 1.922l7.131 3.751c.726-1.013 1.913-1.673 3.253-1.673 2.208 0 4 1.792 4 4s-1.792 4-4 4-4-1.792-4-4c0-.51.096-.999.27-1.447l-7.129-3.751c-.9 1.326-2.419 2.198-4.141 2.198-2.76 0-5-2.24-5-5s2.24-5 5-5c1.723 0 3.243.873 4.143 2.201l7.129-3.75zm3.728 11.549c1.656 0 3 1.344 3 3s-1.344 3-3 3-3-1.344-3-3 1.344-3 3-3zm-15-9c2.208 0 4 1.792 4 4s-1.792 4-4 4-4-1.792-4-4 1.792-4 4-4zm15-7c1.656 0 3 1.344 3 3s-1.344 3-3 3-3-1.344-3-3 1.344-3 3-3z"/>
        </symbol>
        <symbol viewBox="0 0 24 24" id="editor-thin" aria-labelledby="editor-thin-title">
            <title id="editor-thin-title">icon editor-thin</title>
            <path d="M8.071 21.586l-7.071 1.414 1.414-7.071 14.929-14.929 5.657 5.657-14.929 14.929zm-.493-.921l-4.243-4.243-1.06 5.303 5.303-1.06zm9.765-18.251l-13.3 13.301 4.242 4.242 13.301-13.3-4.243-4.243z"/>
        </symbol>
        <symbol viewBox="0 0 24 24" id="folder" aria-labelledby="folder-title">
            <title id="folder-title">icon folder</title>
            <path d="M11 5h13v17h-24v-20h8l3 3zm-10-2v18h22v-15h-12.414l-3-3h-6.586z"/>
        </symbol>
        <symbol fill="#808080" viewBox="0 0 24 24" id="folder-light" aria-labelledby="folder-light-title">
            <title id="-title">icon folder-light</title>
            <path d="M11 5h13v17h-24v-20h8l3 3zm-10-2v18h22v-15h-12.414l-3-3h-6.586z"/>
        </symbol>
        <symbol viewBox="0 0 24 24" id="plus" aria-labelledby="plus-title">
            <title id="plus-title">icon plus</title>
            <path d="M11 11v-11h1v11h11v1h-11v11h-1v-11h-11v-1h11z"/>
        </symbol>
        <symbol viewBox="0 0 24 24" id="trash" aria-labelledby="trash-title">
            <title id="trash-title">icon trash</title>
            <path d="M12 0c-4.992 0-10 1.242-10 3.144 0 .406 3.556 18.488 3.633 18.887 1.135 1.313 3.735 1.969 6.334 1.969 2.601 0 5.199-.656 6.335-1.969.081-.404 3.698-18.468 3.698-18.882 0-2.473-7.338-3.149-10-3.149zm0 1.86c4.211 0 7.625.746 7.625 1.667 0 .92-3.414 1.667-7.625 1.667s-7.625-.746-7.625-1.667 3.414-1.667 7.625-1.667zm4.469 19.139c-.777.532-2.418 1.001-4.502 1.001-2.081 0-3.721-.467-4.498-.998l-.004-.021c-1.552-7.913-2.414-12.369-2.894-14.882 3.55 1.456 11.304 1.455 14.849-.002-.868 4.471-2.434 12.322-2.951 14.902zm-7.872-7.418l-.492-.323 1.824-.008.78 1.667-.506-.32c-.723 1.146-1.027 1.764-.796 2.481-1.823-1.798-1.622-2.182-.81-3.497zm.622-1.304l.781-1.418c.195-.38 1.251-.075 1.688.899l-.797 1.445-1.672-.926zm2.673 5.175h-1.729c-.427.013-.672-1.061-.031-1.915h1.761v1.915zm.058-4.886l.524-.289c-.652-1.188-1.044-1.753-1.781-1.898 2.451-.729 2.593-.41 3.445.981l.521-.275-.79 1.654-1.919-.173zm3.059.005l.911 1.474c.236.355-.546 1.129-1.607 1.035l-.928-1.501 1.624-1.008zm-1.549 4.846l-.004.583-1.028-1.616 1.054-1.47-.006.6c1.354.011 2.037-.055 2.524-.63-.565 2.5-.942 2.533-2.54 2.533z"/>
        </symbol>
        <symbol viewBox="0 0 24 24" id="warning" aria-labelledby="warning-title">
            <title id="warning-title">icon warning</title>
            <path d="M24 23h-24l12-22 12 22zm-22.315-1h20.63l-10.315-18.912-10.315 18.912zm10.315-2c.466 0 .845-.378.845-.845 0-.466-.379-.844-.845-.844-.466 0-.845.378-.845.844 0 .467.379.845.845.845zm.5-11v8h-1v-8h1z"/>
        </symbol>
        <symbol fill="#FFA726" viewBox="0 0 24 24" id="plus-orange" aria-labelledby="plus-orange-title">
            <title id="plus-orange-title">icon plus-orange</title>
            <path d="M11 11v-11h1v11h11v1h-11v11h-1v-11h-11v-1h11z"/>
        </symbol>
        <symbol viewBox="0 0 408.93 407.81" id="from-diagram" aria-labelledby="plus-from-diagram">
            <title id="from-diagram-title">icon from-diagram</title>
            <rect fill="#333" x="335.7" y="314.76" width="154.63" height="17"
                  transform="translate(-295.53 40.47) rotate(-28.14)"/>
            <rect fill="#333" x="404.95" y="391.56" width="17" height="154.55"
                  transform="translate(-385.28 426.34) rotate(-62.48)"/>
            <path fill="#333"
                  d="M533.49,327.16a67.33,67.33,0,1,1,67.33-67.33A67.41,67.41,0,0,1,533.49,327.16Zm0-117.67a50.33,50.33,0,1,0,50.33,50.33A50.39,50.39,0,0,0,533.49,209.49Z"
                  transform="translate(-191.9 -192.49)"/>
            <path fill="#333"
                  d="M533.49,600.31A67.33,67.33,0,1,1,600.83,533,67.41,67.41,0,0,1,533.49,600.31Zm0-117.67A50.33,50.33,0,1,0,583.83,533,50.39,50.39,0,0,0,533.49,482.64Z"
                  transform="translate(-191.9 -192.49)"/>
            <path fill="#ffa644"
                  d="M277.29,481.89a85.39,85.39,0,1,1,85.39-85.39A85.49,85.49,0,0,1,277.29,481.89Zm0-153.79a68.39,68.39,0,1,0,68.39,68.39A68.47,68.47,0,0,0,277.29,328.11Z"
                  transform="translate(-191.9 -192.49)"/>
        </symbol>
    </defs>
</svg>