<svg id="Ebene_9" xmlns="http://www.w3.org/2000/svg" viewBox="0 0 568.29 101.02"><defs><style>.cls-1{fill:#f7a52c;}.cls-2{fill:#333333;}</style></defs><title>granalyzer-logo</title><path class="cls-1" d="M244.44,439.6q-12.72,0-17.75-3.44t-5-12.56a12,12,0,0,1,1.91-7,29.64,29.64,0,0,1,6.47-6.09q-3-2-3-7.31,0-1.8,2.65-6.68l1-1.7q-8.37-3.82-8.37-16,0-18.13,19.82-18.13a39.85,39.85,0,0,1,9.43,1.06l1.59.32,15.69-.42v6.78l-10.07-.21q3.5,3.5,3.5,10.6,0,10-4.93,13.94t-15.53,4a29.09,29.09,0,0,1-5.19-.42q-1.91,4.67-1.91,6,0,3.29,2,4.08t12.19.79q10.18,0,14.63,3.18t4.45,12.4Q268,439.6,244.44,439.6ZM229.49,423q0,5.62,3.13,7.79t11.55,2.17q8.43,0,12.08-2.33t3.66-7.79q0-5.46-2.65-7t-10.39-1.59l-11.45-.53a18.73,18.73,0,0,0-4.72,4.45A8.9,8.9,0,0,0,229.49,423Zm.74-44.2q0,6.26,2.81,8.9t9.27,2.65q6.46,0,9.22-2.65t2.76-9q0-6.31-2.76-9t-9.22-2.65q-6.47,0-9.27,2.7T230.23,378.76Z" transform="translate(-114.33 -338.59)"/><path class="cls-1" d="M278.46,414.69v-53h7.84v7.21a51.63,51.63,0,0,1,19.4-8.37v8.06a57.27,57.27,0,0,0-9.27,2.65,61.78,61.78,0,0,0-7.37,3.18l-2.65,1.38v38.9Z" transform="translate(-114.33 -338.59)"/><path class="cls-1" d="M352.55,377.7v27.14q.32,3.92,6.15,4.66l-.32,6.25q-8.37,0-12.61-4.24a46.62,46.62,0,0,1-19.08,4.24q-7.31,0-11.13-4.13t-3.82-11.87q0-7.74,3.92-11.4t12.3-4.5l16.64-1.59V377.7q0-5.41-2.33-7.74a8.6,8.6,0,0,0-6.36-2.33,152.64,152.64,0,0,0-17.6,1.06L315,369l-.32-6a106.89,106.89,0,0,1,20.67-2.33q9,0,13.09,4.13T352.55,377.7ZM319.9,399.32q0,9.75,8.06,9.75a42.87,42.87,0,0,0,14.2-2.44l2.44-.85V388.3l-15.69,1.48q-4.77.42-6.89,2.76T319.9,399.32Z" transform="translate(-114.33 -338.59)"/><path class="cls-1" d="M376.19,414.69h-7.95v-53h7.84v3.71q8.59-4.77,16.43-4.77,10.6,0,14.26,5.72t3.66,20.35v28h-7.84V386.92q0-11-2.17-15.1t-9.27-4.08a27.7,27.7,0,0,0-7.15,1,35.76,35.76,0,0,0-5.78,2l-2,1Z" transform="translate(-114.33 -338.59)"/><path class="cls-1" d="M462.58,377.7v27.14q.32,3.92,6.15,4.66l-.32,6.25q-8.37,0-12.61-4.24a46.62,46.62,0,0,1-19.08,4.24q-7.31,0-11.13-4.13t-3.82-11.87q0-7.74,3.92-11.4t12.3-4.5l16.64-1.59V377.7q0-5.41-2.33-7.74a8.6,8.6,0,0,0-6.36-2.33,152.64,152.64,0,0,0-17.6,1.06l-3.29.32-.32-6a106.88,106.88,0,0,1,20.67-2.33q9,0,13.09,4.13T462.58,377.7Zm-32.65,21.62q0,9.75,8.06,9.75a42.86,42.86,0,0,0,14.2-2.44l2.44-.85V388.3l-15.69,1.48q-4.77.42-6.89,2.76T429.93,399.32Z" transform="translate(-114.33 -338.59)"/><path class="cls-1" d="M478.9,414.69V338.59h8v76.11Z" transform="translate(-114.33 -338.59)"/><path class="cls-1" d="M497.77,361.69h7.95L519,407.8h3.5l13.36-46.11h8l-22,76.53h-8l6.89-23.53h-7.84Z" transform="translate(-114.33 -338.59)"/><path class="cls-1" d="M550.76,368.8v-7.1h39.33v7.1l-29.68,38.8h29.68v7.1H550.76v-7.1l29.68-38.8Z" transform="translate(-114.33 -338.59)"/><path class="cls-1" d="M637.89,408.12l3.07-.32.21,6.25a152.28,152.28,0,0,1-20.67,1.7q-11.45,0-16.22-6.62t-4.77-20.62q0-27.88,22.15-27.88,10.7,0,16,6t5.3,18.81l-.42,6h-35q0,8.8,3.18,13t11.08,4.24Q629.73,408.76,637.89,408.12Zm-2.86-23q0-9.75-3.13-13.78t-10.18-4q-7.05,0-10.6,4.24t-3.66,13.57Z" transform="translate(-114.33 -338.59)"/><path class="cls-1" d="M655.38,414.69v-53h7.84v7.21a51.63,51.63,0,0,1,19.4-8.37v8.06a57.26,57.26,0,0,0-9.27,2.65,61.79,61.79,0,0,0-7.37,3.18l-2.65,1.38v38.9Z" transform="translate(-114.33 -338.59)"/><circle class="cls-2" cx="28.67" cy="28.08" r="8.33"/><circle class="cls-2" cx="79.33" cy="55.45" r="8.33"/><circle class="cls-2" cx="18.33" cy="74.11" r="8.33"/><circle class="cls-2" cx="44.67" cy="50.6" r="8.33"/><circle class="cls-2" cx="67.33" cy="15.41" r="8.33"/><circle class="cls-2" cx="8.33" cy="50.08" r="8.33"/><circle class="cls-2" cx="54.33" cy="79.41" r="8.33"/><path class="cls-2" d="M161.16,390.45l22.67-35.18c1.75-2.71-2.58-5.22-4.32-2.52l-22.67,35.18c-1.75,2.71,2.58,5.22,4.32,2.52Z" transform="translate(-114.33 -338.59)"/><path class="cls-2" d="M140.84,367.93l16,22c1.87,2.58,6.21.08,4.32-2.52l-16-22c-1.87-2.58-6.21-.08-4.32,2.52Z" transform="translate(-114.33 -338.59)"/><path class="cls-2" d="M194.33,391.62l-34.67-4.85c-3.15-.44-4.51,4.38-1.33,4.82L193,396.44c3.15.44,4.51-4.38,1.33-4.82Z" transform="translate(-114.33 -338.59)"/><path class="cls-2" d="M171.08,417.34l-9.67-28.82c-1-3-5.85-1.73-4.82,1.33l9.67,28.82c1,3,5.85,1.73,4.82-1.33Z" transform="translate(-114.33 -338.59)"/><path class="cls-2" d="M134.43,414.46l26.33-24c2.38-2.17-1.16-5.7-3.54-3.54l-26.33,24c-2.38,2.17,1.16,5.7,3.54,3.54Z" transform="translate(-114.33 -338.59)"/><path class="cls-2" d="M122.67,391.17H159c3.22,0,3.22-5,0-5H122.67c-3.22,0-3.22,5,0,5Z" transform="translate(-114.33 -338.59)"/></svg>