<svg id="Ebene_9" xmlns="http://www.w3.org/2000/svg" viewBox="0 0 100 100"><defs><style>.cls-1{fill:#f7a52c;}.cls-2{fill:#000000;}</style></defs><title>granalyzer-logo</title><circle class="cls-2" cx="28.67" cy="28.08" r="8.33"/><circle class="cls-2" cx="79.33" cy="55.45" r="8.33"/><circle class="cls-2" cx="18.33" cy="74.11" r="8.33"/><circle class="cls-2" cx="44.67" cy="50.6" r="8.33"/><circle class="cls-2" cx="67.33" cy="15.41" r="8.33"/><circle class="cls-2" cx="8.33" cy="50.08" r="8.33"/><circle class="cls-2" cx="54.33" cy="79.41" r="8.33"/><path class="cls-2" d="M161.16,390.45l22.67-35.18c1.75-2.71-2.58-5.22-4.32-2.52l-22.67,35.18c-1.75,2.71,2.58,5.22,4.32,2.52Z" transform="translate(-114.33 -338.59)"/><path class="cls-2" d="M140.84,367.93l16,22c1.87,2.58,6.21.08,4.32-2.52l-16-22c-1.87-2.58-6.21-.08-4.32,2.52Z" transform="translate(-114.33 -338.59)"/><path class="cls-2" d="M194.33,391.62l-34.67-4.85c-3.15-.44-4.51,4.38-1.33,4.82L193,396.44c3.15.44,4.51-4.38,1.33-4.82Z" transform="translate(-114.33 -338.59)"/><path class="cls-2" d="M171.08,417.34l-9.67-28.82c-1-3-5.85-1.73-4.82,1.33l9.67,28.82c1,3,5.85,1.73,4.82-1.33Z" transform="translate(-114.33 -338.59)"/><path class="cls-2" d="M134.43,414.46l26.33-24c2.38-2.17-1.16-5.7-3.54-3.54l-26.33,24c-2.38,2.17,1.16,5.7,3.54,3.54Z" transform="translate(-114.33 -338.59)"/><path class="cls-2" d="M122.67,391.17H159c3.22,0,3.22-5,0-5H122.67c-3.22,0-3.22,5,0,5Z" transform="translate(-114.33 -338.59)"/></svg>